<svg xmlns="http://www.w3.org/2000/svg" viewBox="0 0 24.36 18.91"><defs><style>.cls-1{fill:#fff;}</style></defs><g id="Слой_2" data-name="Слой 2"><g id="Layer_1" data-name="Layer 1"><path class="cls-1" d="M.06,15.06c0,.18,0,.36,0,.53a.26.26,0,0,0,.13.24c.35.23.69.48,1,.72a19.09,19.09,0,0,0,2.07,1.18,18.53,18.53,0,0,0,2.81,1.13l.11.05h0c.13-.18.24-.37.38-.54A3.23,3.23,0,0,0,7,17.88l.56-1.06,0-.09-.09-.05a11.82,11.82,0,0,1-1.15-.51l-.74-.41-.08,0,.07-.06L6,15.36a.12.12,0,0,1,.14,0c.4.17.79.35,1.2.5a14.11,14.11,0,0,0,2.7.7q.66.11,1.32.15a10.1,10.1,0,0,0,1.23,0c.38,0,.77,0,1.16-.08a12.1,12.1,0,0,0,2-.36,15.61,15.61,0,0,0,2.3-.79l.29-.14a.11.11,0,0,1,.11,0l.43.35v0a12.54,12.54,0,0,1-2,1,.64.64,0,0,0,0,.07,16.24,16.24,0,0,0,1.23,2l.06.08h0l.14-.05A22.41,22.41,0,0,0,20.42,18a21.16,21.16,0,0,0,2.48-1.34c.47-.3.92-.62,1.37-1,0-.36.05-.72.07-1.07s0-.42,0-.62,0-.15,0-.23v-.53c0-.2,0-.4,0-.61s0-.4,0-.6c-.07-.6-.13-1.21-.22-1.81A16.68,16.68,0,0,0,23.61,8,20.36,20.36,0,0,0,22.54,5a20.3,20.3,0,0,0-1.23-2.36c-.21-.36-.44-.71-.66-1.06A19.43,19.43,0,0,0,16.25.13L15.76,0c-.15,0-.15,0-.22.1L15,1.34c-.56-.08-1.13-.15-1.7-.18-.4,0-.8,0-1.2,0s-.81,0-1.22.05-.88.08-1.32.15c-.11,0-.12,0-.16-.09C9.17.81,9,.4,8.75,0,8.37.08,8,.15,7.6.24A19.15,19.15,0,0,0,4.29,1.33c-.16.07-.32.15-.48.21a.37.37,0,0,0-.15.13c-.36.57-.71,1.14-1,1.74A20.7,20.7,0,0,0,1.46,5.89a19.82,19.82,0,0,0-1,3.29,17.85,17.85,0,0,0-.33,2.05c0,.38-.06.76-.09,1.14,0,.6,0,1.2,0,1.8C0,14.46,0,14.76.06,15.06ZM16.59,7.87A2.5,2.5,0,0,1,18.4,10a3.46,3.46,0,0,0,.09.72,2.68,2.68,0,0,1-1.75,2.09,1.93,1.93,0,0,1-1.82-.44A2.77,2.77,0,0,1,14.05,10,2.38,2.38,0,0,1,16.59,7.87Zm-10,.77a2.07,2.07,0,0,1,1.36-.73,2,2,0,0,1,1.48.45A2.48,2.48,0,0,1,10.3,10a2.76,2.76,0,0,1-.23,1.6,2.23,2.23,0,0,1-1.18,1.16,1.83,1.83,0,0,1-.77.16,2,2,0,0,1-1.29-.51A2.46,2.46,0,0,1,6,10.89c0-.17,0-.33,0-.42A2.71,2.71,0,0,1,6.58,8.64Z"/></g></g></svg>