<svg xmlns="http://www.w3.org/2000/svg" viewBox="0 0 162.97 71.24"><defs><style>.cls-1{fill:#feff2e;}</style></defs><g id="Слой_2" data-name="Слой 2"><g id="Layer_1" data-name="Layer 1"><path class="cls-1" d="M18.93,32.11c-.65-1.05-1.42-2.18-2.3-3.39s-1.84-2.44-2.86-3.67-2.08-2.41-3.2-3.55a34.59,34.59,0,0,0-3.34-3v13.6H0V0H7.23V12.07c1.86-2,3.74-4,5.66-6.13S16.58,1.83,18.2,0h8.58c-2.19,2.6-4.38,5.1-6.6,7.51s-4.53,4.81-7,7.25a55.05,55.05,0,0,1,7.44,7.62,94.87,94.87,0,0,1,6.88,9.73Z"/><path class="cls-1" d="M44.8,18.11c-.61,2.35-1.27,4.68-2,7s-1.43,4.65-2.2,7H35.26c-.56-1.3-1.16-2.84-1.81-4.64s-1.33-3.74-2-5.86S30,17.26,29.29,14.89s-1.43-4.74-2.11-7.15h7.27c.25,1.11.52,2.32.82,3.63s.6,2.67.93,4.06.67,2.79,1,4.19.73,2.76,1.1,4.05c.4-1.35.79-2.74,1.18-4.17s.76-2.81,1.11-4.19.7-2.7,1-4,.61-2.48.86-3.59h5c.25,1.11.53,2.31.84,3.59s.63,2.61,1,4,.69,2.77,1.06,4.19.76,2.82,1.16,4.17c.38-1.29.75-2.64,1.12-4.05s.72-2.8,1-4.19.64-2.74.93-4.06.57-2.52.82-3.63h7.18q-1,3.62-2.12,7.15c-.72,2.37-1.44,4.61-2.13,6.72s-1.38,4.07-2,5.86-1.27,3.34-1.83,4.64H49.11q-1.15-3.52-2.27-7T44.8,18.11Z"/><path class="cls-1" d="M89.75,7.74q-2.1,7-4.37,13.2t-5,12a27,27,0,0,1-2,3.55,11.22,11.22,0,0,1-2.13,2.41,7.78,7.78,0,0,1-2.62,1.39,12,12,0,0,1-3.41.44,13.86,13.86,0,0,1-5.25-1l1.21-5.51a11.12,11.12,0,0,0,1.9.51,10.92,10.92,0,0,0,1.76.14,3.82,3.82,0,0,0,2.85-1,7.83,7.83,0,0,0,1.69-2.75q-2.35-4.64-4.73-10.4A131.3,131.3,0,0,1,65.29,7.74h7.32c.31,1.2.67,2.51,1.09,3.91s.86,2.83,1.33,4.26.93,2.84,1.41,4.2.94,2.59,1.38,3.7c.4-1.11.82-2.34,1.25-3.7s.86-2.76,1.28-4.2.82-2.85,1.21-4.26.74-2.71,1-3.91Z"/><path class="cls-1" d="M120.3,1.67,127.2.56V7.74h8.29v5.74H127.2v8.57a6.82,6.82,0,0,0,.77,3.48c.5.86,1.53,1.29,3.08,1.29a13.06,13.06,0,0,0,2.29-.2,11.6,11.6,0,0,0,2.15-.58l1,5.37a18.94,18.94,0,0,1-2.78.88,16.07,16.07,0,0,1-3.76.37,12.39,12.39,0,0,1-4.68-.76,7.36,7.36,0,0,1-3-2.13,7.91,7.91,0,0,1-1.55-3.32,19.07,19.07,0,0,1-.44-4.3Z"/><path class="cls-1" d="M163,19.88a15.71,15.71,0,0,1-.84,5.25,11.3,11.3,0,0,1-2.41,4.08A10.88,10.88,0,0,1,156,31.83a12.57,12.57,0,0,1-4.94.93,12.38,12.38,0,0,1-4.88-.93,10.83,10.83,0,0,1-3.78-2.62,12,12,0,0,1-2.46-4.08,15.22,15.22,0,0,1-.88-5.25,14.63,14.63,0,0,1,.91-5.24,11.79,11.79,0,0,1,2.5-4A11.16,11.16,0,0,1,146.22,8,12.18,12.18,0,0,1,151,7.09a12.37,12.37,0,0,1,4.85.93,10.94,10.94,0,0,1,3.77,2.59,11.86,11.86,0,0,1,2.46,4A15.08,15.08,0,0,1,163,19.88Zm-7.05,0a8.67,8.67,0,0,0-1.27-5A4.17,4.17,0,0,0,151,13a4.24,4.24,0,0,0-3.66,1.83,8.59,8.59,0,0,0-1.29,5A8.81,8.81,0,0,0,147.35,25,4.2,4.2,0,0,0,151,26.82,4.13,4.13,0,0,0,154.65,25,8.89,8.89,0,0,0,155.92,19.88Z"/><path class="cls-1" d="M21.45,64.42v6.2H0V38.52H7.23v25.9Z"/><path class="cls-1" d="M35.79,45.61a16.12,16.12,0,0,1,5.1.69,7.84,7.84,0,0,1,3.26,2,7.37,7.37,0,0,1,1.74,3.15,15.57,15.57,0,0,1,.51,4.13V69.93c-1,.22-2.36.47-4.12.76a38.85,38.85,0,0,1-6.39.44,20.83,20.83,0,0,1-4.29-.41,9.35,9.35,0,0,1-3.31-1.37,6.17,6.17,0,0,1-2.13-2.48,8.47,8.47,0,0,1-.75-3.75,7.16,7.16,0,0,1,.86-3.62,6.72,6.72,0,0,1,2.29-2.36,10.54,10.54,0,0,1,3.29-1.27,18.69,18.69,0,0,1,3.85-.4,21.16,21.16,0,0,1,2.39.12,11.71,11.71,0,0,1,1.69.3v-.65a3.82,3.82,0,0,0-1.07-2.82A5.15,5.15,0,0,0,35,51.35a23.53,23.53,0,0,0-3.47.26,15.82,15.82,0,0,0-3,.71l-.88-5.56c.41-.12.91-.25,1.51-.39s1.26-.26,2-.37,1.46-.2,2.25-.28A23.42,23.42,0,0,1,35.79,45.61Zm.56,20.2c.68,0,1.33,0,1.94,0a13.82,13.82,0,0,0,1.49-.14V60.39a10.31,10.31,0,0,0-1.25-.19A14.47,14.47,0,0,0,37,60.11a15,15,0,0,0-1.83.11,5,5,0,0,0-1.51.44,2.66,2.66,0,0,0-1,.88,2.44,2.44,0,0,0-.37,1.39,2.37,2.37,0,0,0,1.09,2.25A6,6,0,0,0,36.35,65.81Z"/><path class="cls-1" d="M51.8,47.09A40.07,40.07,0,0,1,62.17,45.7a14.27,14.27,0,0,1,5.17.81,7.82,7.82,0,0,1,3.27,2.29,9,9,0,0,1,1.71,3.52,18.77,18.77,0,0,1,.51,4.54V70.62h-6.9V57.7A9.39,9.39,0,0,0,65.05,53a3.62,3.62,0,0,0-3.29-1.39c-.5,0-1,0-1.58.07s-1,.1-1.48.16V70.62H51.8Z"/><path class="cls-1" d="M115.49,14.64a10.79,10.79,0,0,0-2.48-4,10.91,10.91,0,0,0-4-2.55,15,15,0,0,0-5.37-.9c-.84,0-1.71,0-2.62.11s-1.81.18-2.69.3-1.72.27-2.52.44-1.52.35-2.14.54v32.1h0v6.16A14.58,14.58,0,0,0,91.4,46a11.11,11.11,0,0,0-2.57-.28,11.52,11.52,0,0,0-4.61.88,9.14,9.14,0,0,0-3.4,2.55,11.72,11.72,0,0,0-2.14,4.06,18.11,18.11,0,0,0-.74,5.35,15.27,15.27,0,0,0,.86,5.26,11,11,0,0,0,2.48,4,10.67,10.67,0,0,0,4,2.52,15.29,15.29,0,0,0,5.38.88c.83,0,1.7,0,2.62-.11s1.8-.18,2.68-.3,1.72-.27,2.53-.44,1.51-.35,2.13-.54V31.5a13.08,13.08,0,0,0,2.41.79,12.66,12.66,0,0,0,2.68.28,10.75,10.75,0,0,0,4.59-.93,9.19,9.19,0,0,0,3.34-2.6,11.51,11.51,0,0,0,2-4,17.6,17.6,0,0,0,.7-5.14A15.39,15.39,0,0,0,115.49,14.64ZM93.7,65.13c-.34.06-.78.12-1.3.16s-1.1.07-1.72.07a5,5,0,0,1-4.26-1.94A8.47,8.47,0,0,1,85,58.27c0-4.45,1.63-6.67,4.91-6.67a7.87,7.87,0,0,1,2.1.28,6.18,6.18,0,0,1,1.7.69Zm10.7-38.4a7.94,7.94,0,0,1-2.11-.28,5.7,5.7,0,0,1-1.69-.69V13.3c.34-.06.77-.12,1.3-.17s1.09-.06,1.71-.06A5,5,0,0,1,107.87,15a8.34,8.34,0,0,1,1.44,5.12Q109.31,26.73,104.4,26.73Z"/></g></g></svg>