<svg xmlns="http://www.w3.org/2000/svg" viewBox="0 0 23.84 19.62"><defs><style>.cls-1{fill:#fff;}</style></defs><g id="Слой_2" data-name="Слой 2"><g id="Layer_1" data-name="Layer 1"><path class="cls-1" d="M1.43,18.23a5.12,5.12,0,0,0,.53.25c5.24,2.11,11.6,1.35,15.68-2.71C20.51,12.92,21.52,9,21.52,5.05c0-.15.18-.23.29-.32a9.15,9.15,0,0,0,1.9-2,.59.59,0,0,0,.13-.38v0c0-.06,0,0-.1,0A9.94,9.94,0,0,1,21.33,3c.39-.07,1-.77,1.19-1a4.53,4.53,0,0,0,.8-1.46s0-.1,0-.13a.15.15,0,0,0-.13,0,12.19,12.19,0,0,1-2.85,1.1.2.2,0,0,1-.2-.05,1.55,1.55,0,0,0-.25-.26A5.09,5.09,0,0,0,18.49.35,4.81,4.81,0,0,0,16.37,0a5.05,5.05,0,0,0-2,.57,5.13,5.13,0,0,0-1.63,1.33,4.86,4.86,0,0,0-1,1.94,5.24,5.24,0,0,0,0,2.05c0,.12,0,.13-.1.12A15.25,15.25,0,0,1,1.64.85C.32,2.57.87,5.5,2.36,6.91c.2.19.4.37.61.54a5.1,5.1,0,0,1-1.9-.54C1,6.84.9,6.88.89,7a3.76,3.76,0,0,0,0,.57,5,5,0,0,0,3.11,4,2.56,2.56,0,0,0,.63.19,5.28,5.28,0,0,1-1.86.06c-.14,0-.19,0-.14.17a5.22,5.22,0,0,0,3.91,3.27,5.24,5.24,0,0,1,.53.08s0,0,0,0c-.44.67-2,1.16-2.67,1.41a9.62,9.62,0,0,1-4.05.52c-.22,0-.26,0-.32,0s0,.09.06.15C.52,17.75,1,18,1.43,18.23Z"/></g></g></svg>